<?xml version='1.0' encoding='utf-8'?>
<svg xmlns="http://www.w3.org/2000/svg" width="91.44mm" height="91.44mm" version="1.1" style="shape-rendering:geometricPrecision; text-rendering:geometricPrecision; image-rendering:optimizeQuality; fill-rule:evenodd; clip-rule:evenodd" viewBox="0 0 9144 9144"> <defs> <style type="text/css">  .fil0 {fill:#011627} .fil2 {fill:#F0F0F0} .fil3 {fill:#011627;fill-rule:nonzero} .fil1 {fill:#011627;fill-opacity:0.501961}  </style> </defs> <g id="Layer_x0020_1"> <metadata id="CorelCorpID_0Corel-Layer"/> <g id="_2744501518032"> <rect class="fil0" x="8882" y="7755" width="16.93" height="16.94"/> <polygon class="fil1" points="8882,7755 8873,7755 8873,7772 8882,7772 "/> <polygon class="fil1" points="8907,7755 8898,7755 8898,7772 8907,7772 "/> <polygon class="fil1" points="8882,7772 8882,7781 8898,7781 8898,7772 "/> <polygon class="fil1" points="8882,7747 8882,7755 8898,7755 8898,7747 "/> <rect class="fil0" x="8882" y="7696" width="16.93" height="16.94"/> <rect class="fil0" x="8865" y="7705" width="16.93" height="16.94"/> <rect class="fil0" x="8848" y="7713" width="16.93" height="16.94"/> <rect class="fil0" x="8898" y="7705" width="16.93" height="16.94"/> <rect class="fil0" x="8915" y="7713" width="16.93" height="16.94"/> <rect class="fil0" x="8882" y="7645" width="16.93" height="16.94"/> <rect class="fil0" x="8865" y="7654" width="16.93" height="16.94"/> <rect class="fil0" x="8848" y="7662" width="16.93" height="16.94"/> <rect class="fil0" x="8898" y="7654" width="16.93" height="16.94"/> <rect class="fil0" x="8915" y="7662" width="16.93" height="16.94"/> <rect class="fil0" x="8932" y="7671" width="16.93" height="16.94"/> <rect class="fil0" x="8831" y="7671" width="16.93" height="16.94"/> <polygon class="fil2" points="0,0 9144,0 9144,9144 0,9144 "/> <path class="fil3" d="M5304 6777l-2849 0c-48,0 -88,-39 -88,-88 0,-563 54,-901 312,-1159 243,-244 660,-399 1383,-595l0 -158c-241,-125 -422,-425 -506,-772 -52,-214 -68,-448 -38,-669 30,-225 108,-438 242,-608 173,-218 438,-361 812,-361 374,0 639,143 812,361 134,170 212,383 242,608 30,221 14,455 -38,669 -84,347 -265,647 -506,772l0 158c723,196 1140,351 1383,595 258,258 312,596 312,1159 0,49 -40,88 -88,88l-1385 0zm-2760 -176l4056 0c-5,-462 -57,-745 -260,-947 -222,-223 -634,-370 -1364,-566 -40,-8 -70,-43 -70,-86l0 -281c0,-35 21,-69 56,-82 212,-83 377,-354 455,-675 47,-194 62,-405 35,-605 -26,-195 -92,-378 -206,-521 -141,-178 -360,-295 -674,-295 -314,0 -533,117 -674,295 -114,143 -180,326 -206,521 -27,200 -12,411 35,605 77,319 241,588 451,673 35,12 60,45 60,84l0 281c0,39 -26,75 -65,85 -733,197 -1146,344 -1369,567 -203,202 -255,485 -260,947z"/> </g> </g> </svg>